# xmcd CD database file
#
# Track frame offsets:
#	150
#	17425
#	40712
#	66440
#	87195
#	104433
#	127753
#	146714
#	169940
#	189068
#	210930
#	230496
#
# Disc length: 3333 seconds
#
# Revision: 0
# Processed by: cddbd v1.5.1PL0 Copyright (c) Steve Scherf et al.
# Submitted via: CDex 1.51
#
DISCID=940d030c
DTITLE=Gabriel Jonas, Matus Jakabcic, Robert Balzar - Trio '04
DYEAR=2003
DGENRE=Jazz
TTITLE0=Touches
TTITLE1=Waves
TTITLE2=Far, And Yet Near
TTITLE3=Waltz For At'ka
TTITLE4=Oleo
TTITLE5=Whisper Not
TTITLE6=Little Song For My Mother
TTITLE7=Tail
TTITLE8=Some Day My Prince Will Come
TTITLE9=Song For Sandra
TTITLE10=Bonus - Little Bossa (Take 2)
TTITLE11=Bonus - Little Bossa (Take 1)
EXTD=YEAR: 2003
EXTT0=
EXTT1=
EXTT2=
EXTT3=
EXTT4=
EXTT5=
EXTT6=
EXTT7=
EXTT8=
EXTT9=
EXTT10=
EXTT11=
PLAYORDER=
